<svg xmlns="http://www.w3.org/2000/svg" xmlns:xlink="http://www.w3.org/1999/xlink" width="512" zoomAndPan="magnify" viewBox="0 0 384 383.999986" height="512" preserveAspectRatio="xMidYMid meet" version="1.0"><path fill="#ffffff" d="M 70.902344 293.8125 L 70.902344 292.679688 C 70.902344 281.335938 72.035156 270.558594 73.738281 259.78125 L 73.738281 258.648438 L 72.601562 258.078125 C 62.394531 254.109375 52.75 249.003906 43.109375 243.898438 L 41.972656 243.332031 L 41.40625 244.464844 C 35.167969 256.945312 30.0625 270.558594 25.523438 284.171875 L 24.957031 285.304688 L 26.089844 285.871094 C 40.273438 289.84375 54.453125 292.679688 69.199219 293.8125 Z M 70.902344 293.8125 " fill-opacity="1" fill-rule="nonzero"/><path fill="#ffffff" d="M 100.394531 99.828125 C 100.394531 99.261719 100.394531 99.261719 100.394531 99.828125 C 91.886719 99.828125 83.945312 100.394531 75.4375 100.964844 C 76.574219 109.472656 77.707031 117.410156 79.976562 125.921875 C 85.648438 116.277344 92.453125 107.203125 100.394531 99.828125 Z M 100.394531 99.828125 " fill-opacity="1" fill-rule="nonzero"/><path fill="#ffffff" d="M 70.902344 304.023438 L 70.902344 302.890625 L 69.765625 302.890625 C 57.855469 301.753906 45.375 299.484375 32.898438 296.648438 L 29.496094 296.082031 L 31.195312 298.917969 C 41.972656 315.367188 55.585938 330.113281 71.46875 343.160156 L 73.738281 345.429688 L 73.738281 341.460938 C 72.035156 328.414062 70.902344 315.933594 70.902344 304.023438 Z M 70.902344 304.023438 " fill-opacity="1" fill-rule="nonzero"/><path fill="#ffffff" d="M 130.457031 10.777344 C 115.710938 15.882812 101.53125 22.6875 88.484375 31.195312 C 98.128906 32.898438 107.769531 35.167969 117.414062 38.003906 C 121.382812 28.925781 125.351562 19.851562 130.457031 10.777344 Z M 130.457031 10.777344 " fill-opacity="1" fill-rule="nonzero"/><path fill="#ffffff" d="M 192.285156 0.566406 C 184.910156 0.566406 177.535156 1.132812 170.730469 1.703125 C 180.941406 8.507812 190.582031 16.449219 199.65625 24.957031 L 207.03125 31.761719 L 199.65625 39.136719 C 193.417969 44.808594 187.179688 51.617188 181.507812 58.421875 L 181.507812 58.988281 C 181.507812 58.988281 180.371094 60.125 178.671875 62.394531 C 183.207031 61.824219 187.746094 61.824219 192.285156 61.824219 C 264.320312 61.824219 322.742188 120.25 322.742188 192.285156 C 322.742188 264.320312 264.320312 322.742188 192.285156 322.742188 C 167.328125 322.742188 144.070312 315.933594 124.21875 303.457031 C 114.574219 304.589844 104.367188 305.15625 94.722656 305.15625 C 90.1875 305.15625 85.648438 305.15625 81.109375 304.589844 C 81.679688 319.339844 82.8125 334.652344 85.082031 350.535156 C 115.710938 371.519531 152.578125 383.433594 192.285156 383.433594 C 298.351562 383.433594 384 297.785156 384 191.714844 C 384 86.214844 298.351562 0.566406 192.285156 0.566406 Z M 192.285156 0.566406 " fill-opacity="1" fill-rule="nonzero"/><path fill="#ffffff" d="M 166.757812 45.945312 C 170.730469 41.40625 174.699219 36.867188 178.671875 32.898438 C 169.59375 25.523438 159.953125 18.152344 150.308594 11.910156 C 144.070312 22.121094 138.964844 32.898438 134.429688 43.675781 C 142.9375 47.078125 151.445312 50.480469 159.953125 54.453125 C 163.355469 49.914062 166.191406 46.511719 166.757812 45.945312 Z M 166.757812 45.945312 " fill-opacity="1" fill-rule="nonzero"/><path fill="#ffffff" d="M 36.867188 155.414062 L 37.4375 156.550781 L 38.570312 155.980469 C 47.644531 149.742188 56.722656 143.503906 66.363281 138.398438 L 67.496094 137.832031 L 67.496094 136.695312 C 64.660156 125.921875 62.394531 114.574219 61.257812 103.230469 L 61.257812 102.097656 L 60.125 102.097656 C 45.945312 104.933594 31.761719 108.335938 18.71875 113.441406 L 17.582031 114.007812 L 18.152344 115.144531 C 22.121094 128.757812 28.925781 142.371094 36.867188 155.414062 Z M 36.867188 155.414062 " fill-opacity="1" fill-rule="nonzero"/><path fill="#ffffff" d="M 34.601562 173.566406 L 33.464844 174.699219 C 23.253906 183.207031 13.613281 192.285156 4.539062 202.492188 L 3.402344 203.628906 L 4.539062 204.761719 C 14.746094 213.269531 24.957031 221.210938 36.300781 228.585938 L 37.4375 229.152344 L 38.003906 228.019531 C 43.109375 218.941406 48.78125 210.433594 55.019531 201.925781 L 55.585938 200.792969 L 55.019531 200.222656 C 48.210938 192.285156 41.40625 184.34375 35.167969 175.265625 Z M 34.601562 173.566406 " fill-opacity="1" fill-rule="nonzero"/><path fill="#ffffff" d="M 110.039062 294.382812 L 113.441406 294.382812 L 110.605469 292.113281 C 100.394531 283.605469 91.320312 273.960938 84.515625 262.617188 L 84.515625 262.050781 L 82.246094 260.914062 L 82.246094 262.617188 C 81.109375 272.261719 79.976562 282.46875 79.976562 292.679688 L 79.976562 293.8125 L 81.109375 293.8125 C 85.648438 293.8125 90.1875 294.382812 94.722656 294.382812 C 99.828125 294.949219 104.933594 294.949219 110.039062 294.382812 Z M 110.039062 294.382812 " fill-opacity="1" fill-rule="nonzero"/><path fill="#ffffff" d="M 103.800781 82.8125 C 106.066406 73.167969 108.335938 64.09375 111.738281 55.019531 C 99.828125 51.617188 87.351562 48.78125 74.871094 47.078125 C 73.738281 59.558594 73.738281 72.035156 74.304688 84.515625 C 83.945312 83.378906 93.589844 82.8125 103.800781 82.8125 Z M 103.800781 82.8125 " fill-opacity="1" fill-rule="nonzero"/><path fill="#ffffff" d="M 121.949219 82.246094 C 130.457031 77.140625 139.535156 72.601562 148.609375 69.199219 C 141.800781 65.796875 134.996094 62.960938 128.1875 60.691406 C 125.921875 67.496094 123.652344 74.871094 121.949219 82.246094 Z M 121.949219 82.246094 " fill-opacity="1" fill-rule="nonzero"/><path fill="#ffffff" d="M 32.898438 237.660156 L 31.765625 237.09375 C 22.121094 230.855469 12.480469 224.046875 3.402344 216.671875 L 0.566406 214.40625 L 1.132812 217.808594 C 3.402344 235.957031 8.507812 254.109375 16.449219 271.125 L 17.582031 273.960938 L 18.71875 271.125 C 22.6875 260.347656 27.226562 249.570312 32.332031 239.363281 Z M 32.898438 237.660156 " fill-opacity="1" fill-rule="nonzero"/><path fill="#ffffff" d="M 57.289062 56.152344 C 45.945312 67.496094 35.734375 80.542969 27.792969 94.15625 C 37.4375 91.320312 47.644531 89.050781 57.855469 86.78125 C 57.289062 76.574219 57.289062 66.363281 57.289062 56.152344 Z M 57.289062 56.152344 " fill-opacity="1" fill-rule="nonzero"/><path fill="#ffffff" d="M 62.960938 190.582031 L 62.960938 187.179688 C 63.527344 175.265625 65.230469 163.921875 68.632812 153.144531 L 69.765625 149.742188 L 66.929688 151.445312 C 59.558594 155.980469 52.183594 160.519531 44.808594 165.625 L 43.675781 166.191406 L 45.375 167.328125 C 50.480469 174.132812 55.585938 181.507812 61.257812 187.746094 Z M 62.960938 190.582031 " fill-opacity="1" fill-rule="nonzero"/><path fill="#ffffff" d="M 64.660156 210.433594 L 64.09375 207.03125 L 62.394531 209.867188 C 57.289062 217.242188 52.183594 225.183594 47.644531 233.121094 L 47.078125 234.257812 L 48.210938 234.824219 C 56.152344 239.363281 64.660156 243.332031 73.167969 247.304688 L 76.007812 248.4375 L 74.871094 245.601562 C 69.765625 234.257812 66.363281 222.34375 64.660156 210.433594 Z M 64.660156 210.433594 " fill-opacity="1" fill-rule="nonzero"/><path fill="#ffffff" d="M 27.226562 164.492188 L 28.359375 163.921875 L 27.792969 162.789062 C 21.554688 153.144531 16.449219 142.9375 11.34375 132.726562 L 10.210938 129.890625 L 9.074219 133.292969 C 3.402344 150.878906 0.566406 168.460938 0 187.179688 L 0 190.582031 L 2.269531 188.3125 C 9.640625 179.238281 18.152344 171.296875 27.226562 164.492188 Z M 27.226562 164.492188 " fill-opacity="1" fill-rule="nonzero"/></svg>