<svg xmlns="http://www.w3.org/2000/svg" xmlns:xlink="http://www.w3.org/1999/xlink" width="700" zoomAndPan="magnify" viewBox="0 0 525 525.000007" height="700" preserveAspectRatio="xMidYMid meet" version="1.0"><defs><clipPath id="id1"><path d="M 111 0 L 524.5 0 L 524.5 524 L 111 524 Z M 111 0 " clip-rule="nonzero"/></clipPath><clipPath id="id2"><path d="M 0.5 177 L 40 177 L 40 261 L 0.5 261 Z M 0.5 177 " clip-rule="nonzero"/></clipPath></defs><path fill="#43b049" d="M 97.25 400.933594 L 97.25 399.386719 C 97.25 383.90625 98.796875 369.199219 101.121094 354.496094 L 101.121094 352.945312 L 99.570312 352.171875 C 85.640625 346.753906 72.480469 339.789062 59.324219 332.824219 L 57.777344 332.046875 L 57 333.597656 C 48.488281 350.625 41.519531 369.199219 35.328125 387.777344 L 34.554688 389.324219 L 36.101562 390.097656 C 55.453125 395.515625 74.804688 399.386719 94.929688 400.933594 Z M 97.25 400.933594 " fill-opacity="1" fill-rule="nonzero"/><path fill="#43b049" d="M 137.5 136.226562 C 137.5 135.449219 137.5 135.449219 137.5 136.226562 C 125.886719 136.226562 115.050781 137 103.441406 137.773438 C 104.988281 149.382812 106.539062 160.21875 109.632812 171.828125 C 117.375 158.671875 126.660156 146.285156 137.5 136.226562 Z M 137.5 136.226562 " fill-opacity="1" fill-rule="nonzero"/><path fill="#43b049" d="M 97.25 414.867188 L 97.25 413.320312 L 95.703125 413.320312 C 79.449219 411.769531 62.417969 408.675781 45.390625 404.804688 L 40.746094 404.03125 L 43.070312 407.902344 C 57.777344 430.347656 76.351562 450.472656 98.023438 468.273438 L 101.121094 471.371094 L 101.121094 465.953125 C 98.796875 448.148438 97.25 431.121094 97.25 414.867188 Z M 97.25 414.867188 " fill-opacity="1" fill-rule="nonzero"/><path fill="#43b049" d="M 178.519531 14.707031 C 158.394531 21.671875 139.046875 30.960938 121.242188 42.570312 C 134.402344 44.890625 147.558594 47.988281 160.71875 51.859375 C 166.136719 39.472656 171.554688 27.089844 178.519531 14.707031 Z M 178.519531 14.707031 " fill-opacity="1" fill-rule="nonzero"/><g clip-path="url(#id1)"><path fill="#43b049" d="M 262.886719 0.773438 C 252.824219 0.773438 242.761719 1.546875 233.476562 2.320312 C 247.40625 11.609375 260.566406 22.445312 272.949219 34.054688 L 283.011719 43.34375 L 272.949219 53.40625 C 264.433594 61.144531 255.921875 70.433594 248.179688 79.722656 L 248.179688 80.496094 C 248.179688 80.496094 246.632812 82.042969 244.3125 85.140625 C 250.503906 84.367188 256.695312 84.367188 262.886719 84.367188 C 361.1875 84.367188 440.910156 164.089844 440.910156 262.386719 C 440.910156 360.6875 361.1875 440.410156 262.886719 440.410156 C 228.832031 440.410156 197.097656 431.121094 170.007812 414.09375 C 156.847656 415.640625 142.917969 416.414062 129.757812 416.414062 C 123.566406 416.414062 117.375 416.414062 111.183594 415.640625 C 111.957031 435.765625 113.503906 456.664062 116.601562 478.335938 C 158.394531 506.972656 208.707031 523.226562 262.886719 523.226562 C 407.625 523.226562 524.5 406.351562 524.5 261.613281 C 524.5 117.648438 407.625 0.773438 262.886719 0.773438 Z M 262.886719 0.773438 " fill-opacity="1" fill-rule="nonzero"/></g><path fill="#43b049" d="M 228.058594 62.695312 C 233.476562 56.503906 238.894531 50.308594 244.3125 44.890625 C 231.925781 34.832031 218.769531 24.769531 205.609375 16.253906 C 197.097656 30.1875 190.128906 44.890625 183.9375 59.597656 C 195.546875 64.242188 207.160156 68.886719 218.769531 74.304688 C 223.414062 68.113281 227.28125 63.46875 228.058594 62.695312 Z M 228.058594 62.695312 " fill-opacity="1" fill-rule="nonzero"/><path fill="#43b049" d="M 50.808594 212.078125 L 51.582031 213.625 L 53.132812 212.851562 C 65.515625 204.335938 77.898438 195.824219 91.058594 188.855469 L 92.605469 188.082031 L 92.605469 186.535156 C 88.734375 171.828125 85.640625 156.347656 84.089844 140.867188 L 84.089844 139.320312 L 82.542969 139.320312 C 63.195312 143.191406 43.84375 147.835938 26.042969 154.800781 L 24.492188 155.574219 L 25.265625 157.125 C 30.683594 175.699219 39.972656 194.277344 50.808594 212.078125 Z M 50.808594 212.078125 " fill-opacity="1" fill-rule="nonzero"/><path fill="#43b049" d="M 47.714844 236.847656 L 46.164062 238.394531 C 32.234375 250.003906 19.074219 262.386719 6.691406 276.320312 L 5.144531 277.867188 L 6.691406 279.417969 C 20.625 291.027344 34.554688 301.863281 50.035156 311.925781 L 51.582031 312.699219 L 52.359375 311.148438 C 59.324219 298.765625 67.0625 287.15625 75.578125 275.546875 L 76.351562 274 L 75.578125 273.222656 C 66.289062 262.386719 57 251.550781 48.488281 239.167969 Z M 47.714844 236.847656 " fill-opacity="1" fill-rule="nonzero"/><path fill="#43b049" d="M 150.65625 401.710938 L 155.300781 401.710938 L 151.429688 398.613281 C 137.5 387.003906 125.113281 373.84375 115.824219 358.363281 L 115.824219 357.589844 L 112.730469 356.042969 L 112.730469 358.363281 C 111.183594 371.523438 109.632812 385.453125 109.632812 399.386719 L 109.632812 400.933594 L 111.183594 400.933594 C 117.375 400.933594 123.566406 401.710938 129.757812 401.710938 C 136.722656 402.484375 143.691406 402.484375 150.65625 401.710938 Z M 150.65625 401.710938 " fill-opacity="1" fill-rule="nonzero"/><path fill="#43b049" d="M 142.140625 113.003906 C 145.238281 99.847656 148.335938 87.460938 152.976562 75.078125 C 136.722656 70.433594 119.695312 66.566406 102.667969 64.242188 C 101.121094 81.269531 101.121094 98.296875 101.894531 115.328125 C 115.050781 113.777344 128.210938 113.003906 142.140625 113.003906 Z M 142.140625 113.003906 " fill-opacity="1" fill-rule="nonzero"/><path fill="#43b049" d="M 166.910156 112.230469 C 178.519531 105.265625 190.90625 99.074219 203.289062 94.429688 C 194 89.785156 184.710938 85.914062 175.425781 82.820312 C 172.328125 92.105469 169.230469 102.167969 166.910156 112.230469 Z M 166.910156 112.230469 " fill-opacity="1" fill-rule="nonzero"/><path fill="#43b049" d="M 45.390625 324.308594 L 43.84375 323.535156 C 30.683594 315.019531 17.527344 305.730469 5.144531 295.671875 L 1.273438 292.574219 L 2.046875 297.21875 C 5.144531 321.988281 12.109375 346.753906 22.945312 369.976562 L 24.492188 373.84375 L 26.042969 369.976562 C 31.460938 355.269531 37.652344 340.5625 44.617188 326.628906 Z M 45.390625 324.308594 " fill-opacity="1" fill-rule="nonzero"/><path fill="#43b049" d="M 78.671875 76.625 C 63.195312 92.105469 49.261719 109.910156 38.425781 128.484375 C 51.582031 124.613281 65.515625 121.519531 79.449219 118.421875 C 78.671875 104.492188 78.671875 90.558594 78.671875 76.625 Z M 78.671875 76.625 " fill-opacity="1" fill-rule="nonzero"/><path fill="#43b049" d="M 86.414062 260.066406 L 86.414062 255.421875 C 87.1875 239.167969 89.507812 223.6875 94.152344 208.980469 L 95.703125 204.335938 L 91.832031 206.660156 C 81.769531 212.851562 71.707031 219.042969 61.644531 226.007812 L 60.097656 226.785156 L 62.417969 228.332031 C 69.386719 237.621094 76.351562 247.683594 84.089844 256.195312 Z M 86.414062 260.066406 " fill-opacity="1" fill-rule="nonzero"/><path fill="#43b049" d="M 88.734375 287.15625 L 87.960938 282.511719 L 85.640625 286.382812 C 78.671875 296.445312 71.707031 307.28125 65.515625 318.117188 L 64.742188 319.664062 L 66.289062 320.4375 C 77.125 326.628906 88.734375 332.046875 100.347656 337.464844 L 104.214844 339.015625 L 102.667969 335.144531 C 95.703125 319.664062 91.058594 303.410156 88.734375 287.15625 Z M 88.734375 287.15625 " fill-opacity="1" fill-rule="nonzero"/><g clip-path="url(#id2)"><path fill="#43b049" d="M 37.652344 224.460938 L 39.199219 223.6875 L 38.425781 222.140625 C 29.910156 208.980469 22.945312 195.050781 15.980469 181.117188 L 14.429688 177.246094 L 12.882812 181.890625 C 5.144531 205.886719 1.273438 229.878906 0.5 255.421875 L 0.5 260.066406 L 3.59375 256.96875 C 13.65625 244.585938 25.265625 233.75 37.652344 224.460938 Z M 37.652344 224.460938 " fill-opacity="1" fill-rule="nonzero"/></g></svg>